<svg width="14" height="15" viewBox="0 0 14 15" fill="none" xmlns="http://www.w3.org/2000/svg">
<path d="M13.1987 13.3428L9.69867 9.84283C10.5804 8.763 11.0135 7.38571 10.9086 5.9956C10.8037 4.60548 10.1687 3.30881 9.13487 2.37357C8.10107 1.43833 6.74748 0.936 5.35383 0.970408C3.96019 1.00482 2.63303 1.57333 1.64664 2.55845C0.660256 3.54357 0.0900374 4.87 0.0538369 6.26359C0.0176365 7.65719 0.518221 9.01143 1.45213 10.0464C2.38605 11.0814 3.6819 11.7181 5.07188 11.8248C6.46185 11.9315 7.8397 11.5001 8.92067 10.6198L12.4207 14.1198C12.4718 14.1709 12.5324 14.2114 12.5991 14.2391C12.6659 14.2667 12.7374 14.281 12.8097 14.281C12.8819 14.281 12.9534 14.2667 13.0202 14.2391C13.0869 14.2114 13.1476 14.1709 13.1987 14.1198C13.2498 14.0687 13.2903 14.0081 13.3179 13.9414C13.3456 13.8746 13.3598 13.8031 13.3598 13.7308C13.3598 13.6586 13.3456 13.5871 13.3179 13.5203C13.2903 13.4536 13.2498 13.3929 13.1987 13.3418V13.3428ZM1.17767 6.41783C1.17787 5.56366 1.43134 4.72872 1.90604 4.0186C2.38073 3.30847 3.05534 2.75505 3.84455 2.42831C4.63376 2.10157 5.50214 2.01618 6.33988 2.18294C7.17761 2.34971 7.94709 2.76113 8.55101 3.36519C9.15494 3.96926 9.56618 4.73883 9.73275 5.57661C9.89932 6.41438 9.81373 7.28274 9.48681 8.07187C9.15988 8.86101 8.60631 9.53549 7.89607 10.01C7.18584 10.4846 6.35084 10.7378 5.49667 10.7378C4.35135 10.7368 3.25326 10.2813 2.44349 9.4713C1.63372 8.66135 1.17846 7.56315 1.17767 6.41783Z" fill="white"/>
</svg>
